<?xml version="1.0" encoding="UTF-8" standalone="no"?>
<svg
   width="482.03915pt"
   height="345.60001pt"
   viewBox="0 0 482.03917 345.6"
   version="1.1"
   id="svg172"
   sodipodi:docname="toctccfrac.svg"
   inkscape:version="1.3.2 (091e20e, 2023-11-25)"
   inkscape:export-filename="toctccfrac.png"
   inkscape:export-xdpi="300"
   inkscape:export-ydpi="300"
   xmlns:inkscape="http://www.inkscape.org/namespaces/inkscape"
   xmlns:sodipodi="http://sodipodi.sourceforge.net/DTD/sodipodi-0.dtd"
   xmlns:xlink="http://www.w3.org/1999/xlink"
   xmlns="http://www.w3.org/2000/svg"
   xmlns:svg="http://www.w3.org/2000/svg"
   xmlns:rdf="http://www.w3.org/1999/02/22-rdf-syntax-ns#"
   xmlns:cc="http://creativecommons.org/ns#"
   xmlns:dc="http://purl.org/dc/elements/1.1/">
  <sodipodi:namedview
     id="namedview172"
     pagecolor="#ffffff"
     bordercolor="#000000"
     borderopacity="0.25"
     inkscape:showpageshadow="2"
     inkscape:pageopacity="0.0"
     inkscape:pagecheckerboard="0"
     inkscape:deskcolor="#d1d1d1"
     inkscape:document-units="pt"
     inkscape:zoom="0.49560548"
     inkscape:cx="230.02167"
     inkscape:cy="424.73299"
     inkscape:window-width="1392"
     inkscape:window-height="828"
     inkscape:window-x="79"
     inkscape:window-y="38"
     inkscape:window-maximized="0"
     inkscape:current-layer="svg172" />
  <metadata
     id="metadata1">
    <rdf:RDF>
      <cc:Work>
        <dc:type
           rdf:resource="http://purl.org/dc/dcmitype/StillImage" />
        <dc:date>2024-12-02T16:05:53.025030</dc:date>
        <dc:format>image/svg+xml</dc:format>
        <dc:creator>
          <cc:Agent>
            <dc:title>Matplotlib v3.9.2, https://matplotlib.org/</dc:title>
          </cc:Agent>
        </dc:creator>
      </cc:Work>
    </rdf:RDF>
  </metadata>
  <defs
     id="defs1">
    <style
       type="text/css"
       id="style1">*{stroke-linejoin: round; stroke-linecap: butt}</style>
  </defs>
  <g
     id="patch_1"
     transform="translate(21.239147)">
    <path
       d="M 0,345.6 H 460.8 V 0 H 0 Z"
       style="fill:#ffffff"
       id="path1" />
  </g>
  <g
     id="patch_2"
     transform="translate(21.239147)">
    <path
       d="M 62.12,288.592 H 445.68 V 15.12 H 62.12 Z"
       style="fill:#ffffff"
       id="path2" />
  </g>
  <g
     id="PathCollection_1"
     transform="translate(21.239147)">
    <defs
       id="defs2">
      <path
         id="mfcf5058810"
         d="M 0,3 C 0.795609,3 1.55874,2.683901 2.12132,2.12132 2.683901,1.55874 3,0.795609 3,0 3,-0.795609 2.683901,-1.55874 2.12132,-2.12132 1.55874,-2.683901 0.795609,-3 0,-3 -0.795609,-3 -1.55874,-2.683901 -2.12132,-2.12132 -2.683901,-1.55874 -3,-0.795609 -3,0 -3,0.795609 -2.683901,1.55874 -2.12132,2.12132 -1.55874,2.683901 -0.795609,3 0,3 Z"
         style="stroke:#1f77b4" />
    </defs>
    <g
       clip-path="url(#pd559e948ac)"
       id="g6">
      <use
         xlink:href="#mfcf5058810"
         x="79.554543"
         y="148.18018"
         style="fill:#1f77b4;stroke:#1f77b4"
         id="use2" />
      <use
         xlink:href="#mfcf5058810"
         x="166.72728"
         y="194.61653"
         style="fill:#1f77b4;stroke:#1f77b4"
         id="use3" />
      <use
         xlink:href="#mfcf5058810"
         x="253.89999"
         y="229.31734"
         style="fill:#1f77b4;stroke:#1f77b4"
         id="use4" />
      <use
         xlink:href="#mfcf5058810"
         x="341.07272"
         y="255.69554"
         style="fill:#1f77b4;stroke:#1f77b4"
         id="use5" />
      <use
         xlink:href="#mfcf5058810"
         x="428.24545"
         y="276.16147"
         style="fill:#1f77b4;stroke:#1f77b4"
         id="use6" />
    </g>
  </g>
  <g
     id="PathCollection_2"
     transform="translate(21.239147)">
    <defs
       id="defs6">
      <path
         id="m8f68560e0a"
         d="M 0,3 C 0.795609,3 1.55874,2.683901 2.12132,2.12132 2.683901,1.55874 3,0.795609 3,0 3,-0.795609 2.683901,-1.55874 2.12132,-2.12132 1.55874,-2.683901 0.795609,-3 0,-3 -0.795609,-3 -1.55874,-2.683901 -2.12132,-2.12132 -2.683901,-1.55874 -3,-0.795609 -3,0 -3,0.795609 -2.683901,1.55874 -2.12132,2.12132 -1.55874,2.683901 -0.795609,3 0,3 Z"
         style="stroke:#ff7f0e" />
    </defs>
    <g
       clip-path="url(#pd559e948ac)"
       id="g11">
      <use
         xlink:href="#m8f68560e0a"
         x="79.554543"
         y="27.550545"
         style="fill:#ff7f0e;stroke:#ff7f0e"
         id="use7" />
      <use
         xlink:href="#m8f68560e0a"
         x="166.72728"
         y="79.763405"
         style="fill:#ff7f0e;stroke:#ff7f0e"
         id="use8" />
      <use
         xlink:href="#m8f68560e0a"
         x="253.89999"
         y="123.1506"
         style="fill:#ff7f0e;stroke:#ff7f0e"
         id="use9" />
      <use
         xlink:href="#m8f68560e0a"
         x="341.07272"
         y="158.79747"
         style="fill:#ff7f0e;stroke:#ff7f0e"
         id="use10" />
      <use
         xlink:href="#m8f68560e0a"
         x="428.24545"
         y="188.05484"
         style="fill:#ff7f0e;stroke:#ff7f0e"
         id="use11" />
    </g>
  </g>
  <g
     id="matplotlib.axis_1"
     transform="translate(21.239147)">
    <g
       id="xtick_1">
      <g
         id="line2d_1">
        <defs
           id="defs11">
          <path
             id="m210ddbe8c7"
             d="M 0,0 V 3.5"
             style="stroke:#000000;stroke-width:0.8" />
        </defs>
        <g
           id="g12">
          <use
             xlink:href="#m210ddbe8c7"
             x="79.554543"
             y="288.59201"
             style="stroke:#000000;stroke-width:0.8"
             id="use12" />
        </g>
      </g>
      <g
         id="text_1">
        <!-- 50 -->
        <g
           transform="matrix(0.14,0,0,-0.14,70.647045,306.22981)"
           id="g14">
          <defs
             id="defs12">
            <path
               id="DejaVuSans-35"
               d="M 691,4666 H 3169 V 4134 H 1269 V 2991 q 137,47 274,70 138,23 276,23 781,0 1237,-428 457,-428 457,-1159 Q 3513,744 3044,326 2575,-91 1722,-91 1428,-91 1123,-41 819,9 494,109 v 635 q 281,-153 581,-228 300,-75 634,-75 541,0 856,284 316,284 316,772 0,487 -316,771 -315,285 -856,285 -253,0 -505,-56 -251,-56 -513,-175 z"
               transform="scale(0.015625)" />
            <path
               id="DejaVuSans-30"
               d="m 2034,4250 q -487,0 -733,-480 -245,-479 -245,-1442 0,-959 245,-1439 246,-480 733,-480 491,0 736,480 246,480 246,1439 0,963 -246,1442 -245,480 -736,480 z m 0,500 q 785,0 1199,-621 414,-620 414,-1801 0,-1178 -414,-1799 -414,-620 -1199,-620 -784,0 -1198,620 -414,621 -414,1799 0,1181 414,1801 414,621 1198,621 z"
               transform="scale(0.015625)" />
          </defs>
          <use
             xlink:href="#DejaVuSans-35"
             id="use13" />
          <use
             xlink:href="#DejaVuSans-30"
             x="63.623047"
             id="use14" />
        </g>
      </g>
    </g>
    <g
       id="xtick_2">
      <g
         id="line2d_2">
        <g
           id="g15">
          <use
             xlink:href="#m210ddbe8c7"
             x="123.14091"
             y="288.59201"
             style="stroke:#000000;stroke-width:0.8"
             id="use15" />
        </g>
      </g>
      <g
         id="text_2">
        <!-- 55 -->
        <g
           transform="matrix(0.14,0,0,-0.14,114.23341,306.22981)"
           id="g17">
          <use
             xlink:href="#DejaVuSans-35"
             id="use16" />
          <use
             xlink:href="#DejaVuSans-35"
             x="63.623047"
             id="use17" />
        </g>
      </g>
    </g>
    <g
       id="xtick_3">
      <g
         id="line2d_3">
        <g
           id="g18">
          <use
             xlink:href="#m210ddbe8c7"
             x="166.72728"
             y="288.59201"
             style="stroke:#000000;stroke-width:0.8"
             id="use18" />
        </g>
      </g>
      <g
         id="text_3">
        <!-- 60 -->
        <g
           transform="matrix(0.14,0,0,-0.14,157.81977,306.22981)"
           id="g20">
          <defs
             id="defs18">
            <path
               id="DejaVuSans-36"
               d="m 2113,2584 q -425,0 -674,-291 -248,-290 -248,-796 0,-503 248,-796 249,-292 674,-292 425,0 673,292 248,293 248,796 0,506 -248,796 -248,291 -673,291 z m 1253,1979 v -575 q -238,112 -480,171 -242,60 -480,60 -625,0 -955,-422 -329,-422 -376,-1275 184,272 462,417 279,145 613,145 703,0 1111,-427 408,-426 408,-1160 0,-719 -425,-1154 -425,-434 -1131,-434 -810,0 -1238,620 -428,621 -428,1799 0,1106 525,1764 525,658 1409,658 238,0 480,-47 242,-47 505,-140 z"
               transform="scale(0.015625)" />
          </defs>
          <use
             xlink:href="#DejaVuSans-36"
             id="use19" />
          <use
             xlink:href="#DejaVuSans-30"
             x="63.623047"
             id="use20" />
        </g>
      </g>
    </g>
    <g
       id="xtick_4">
      <g
         id="line2d_4">
        <g
           id="g21">
          <use
             xlink:href="#m210ddbe8c7"
             x="210.31363"
             y="288.59201"
             style="stroke:#000000;stroke-width:0.8"
             id="use21" />
        </g>
      </g>
      <g
         id="text_4">
        <!-- 65 -->
        <g
           transform="matrix(0.14,0,0,-0.14,201.40614,306.22981)"
           id="g23">
          <use
             xlink:href="#DejaVuSans-36"
             id="use22" />
          <use
             xlink:href="#DejaVuSans-35"
             x="63.623047"
             id="use23" />
        </g>
      </g>
    </g>
    <g
       id="xtick_5">
      <g
         id="line2d_5">
        <g
           id="g24">
          <use
             xlink:href="#m210ddbe8c7"
             x="253.89999"
             y="288.59201"
             style="stroke:#000000;stroke-width:0.8"
             id="use24" />
        </g>
      </g>
      <g
         id="text_5">
        <!-- 70 -->
        <g
           transform="matrix(0.14,0,0,-0.14,244.9925,306.22981)"
           id="g26">
          <defs
             id="defs24">
            <path
               id="DejaVuSans-37"
               d="M 525,4666 H 3525 V 4397 L 1831,0 H 1172 L 2766,4134 H 525 Z"
               transform="scale(0.015625)" />
          </defs>
          <use
             xlink:href="#DejaVuSans-37"
             id="use25" />
          <use
             xlink:href="#DejaVuSans-30"
             x="63.623047"
             id="use26" />
        </g>
      </g>
    </g>
    <g
       id="xtick_6">
      <g
         id="line2d_6">
        <g
           id="g27">
          <use
             xlink:href="#m210ddbe8c7"
             x="297.48636"
             y="288.59201"
             style="stroke:#000000;stroke-width:0.8"
             id="use27" />
        </g>
      </g>
      <g
         id="text_6">
        <!-- 75 -->
        <g
           transform="matrix(0.14,0,0,-0.14,288.57886,306.22981)"
           id="g29">
          <use
             xlink:href="#DejaVuSans-37"
             id="use28" />
          <use
             xlink:href="#DejaVuSans-35"
             x="63.623047"
             id="use29" />
        </g>
      </g>
    </g>
    <g
       id="xtick_7">
      <g
         id="line2d_7">
        <g
           id="g30">
          <use
             xlink:href="#m210ddbe8c7"
             x="341.07272"
             y="288.59201"
             style="stroke:#000000;stroke-width:0.8"
             id="use30" />
        </g>
      </g>
      <g
         id="text_7">
        <!-- 80 -->
        <g
           transform="matrix(0.14,0,0,-0.14,332.16523,306.22981)"
           id="g32">
          <defs
             id="defs30">
            <path
               id="DejaVuSans-38"
               d="m 2034,2216 q -450,0 -708,-241 -257,-241 -257,-662 0,-422 257,-663 258,-241 708,-241 450,0 709,242 260,243 260,662 0,421 -258,662 -257,241 -711,241 z m -631,268 q -406,100 -633,378 -226,279 -226,679 0,559 398,884 399,325 1092,325 697,0 1094,-325 397,-325 397,-884 0,-400 -227,-679 -226,-278 -629,-378 456,-106 710,-416 255,-309 255,-755 Q 3634,634 3220,271 2806,-91 2034,-91 1263,-91 848,271 434,634 434,1313 q 0,446 256,755 257,310 713,416 z m -231,997 q 0,-362 226,-565 227,-203 636,-203 407,0 636,203 230,203 230,565 0,363 -230,566 -229,203 -636,203 -409,0 -636,-203 -226,-203 -226,-566 z"
               transform="scale(0.015625)" />
          </defs>
          <use
             xlink:href="#DejaVuSans-38"
             id="use31" />
          <use
             xlink:href="#DejaVuSans-30"
             x="63.623047"
             id="use32" />
        </g>
      </g>
    </g>
    <g
       id="xtick_8">
      <g
         id="line2d_8">
        <g
           id="g33">
          <use
             xlink:href="#m210ddbe8c7"
             x="384.65909"
             y="288.59201"
             style="stroke:#000000;stroke-width:0.8"
             id="use33" />
        </g>
      </g>
      <g
         id="text_8">
        <!-- 85 -->
        <g
           transform="matrix(0.14,0,0,-0.14,375.75159,306.22981)"
           id="g35">
          <use
             xlink:href="#DejaVuSans-38"
             id="use34" />
          <use
             xlink:href="#DejaVuSans-35"
             x="63.623047"
             id="use35" />
        </g>
      </g>
    </g>
    <g
       id="xtick_9">
      <g
         id="line2d_9">
        <g
           id="g36">
          <use
             xlink:href="#m210ddbe8c7"
             x="428.24545"
             y="288.59201"
             style="stroke:#000000;stroke-width:0.8"
             id="use36" />
        </g>
      </g>
      <g
         id="text_9">
        <!-- 90 -->
        <g
           transform="matrix(0.14,0,0,-0.14,419.33796,306.22981)"
           id="g38">
          <defs
             id="defs36">
            <path
               id="DejaVuSans-39"
               d="m 703,97 v 575 q 238,-113 481,-172 244,-59 479,-59 625,0 954,420 330,420 377,1277 -181,-269 -460,-413 -278,-144 -615,-144 -700,0 -1108,423 -408,424 -408,1159 0,718 425,1152 425,435 1131,435 810,0 1236,-621 427,-620 427,-1801 Q 3622,1225 3098,567 2575,-91 1691,-91 1453,-91 1209,-44 966,3 703,97 Z m 1256,1978 q 425,0 673,290 249,291 249,798 0,503 -249,795 -248,292 -673,292 -425,0 -673,-292 -248,-292 -248,-795 0,-507 248,-798 248,-290 673,-290 z"
               transform="scale(0.015625)" />
          </defs>
          <use
             xlink:href="#DejaVuSans-39"
             id="use37" />
          <use
             xlink:href="#DejaVuSans-30"
             x="63.623047"
             id="use38" />
        </g>
      </g>
    </g>
    <g
       id="text_10">
      <!-- Membrane Area (m$^2$) -->
      <g
         transform="matrix(0.14,0,0,-0.14,179.98,324.92981)"
         id="g56">
        <defs
           id="defs38">
          <path
             id="DejaVuSans-4d"
             d="m 628,4666 h 941 L 2759,1491 3956,4666 h 941 V 0 H 4281 V 4097 L 3078,897 H 2444 L 1241,4097 V 0 H 628 Z"
             transform="scale(0.015625)" />
          <path
             id="DejaVuSans-65"
             d="M 3597,1894 V 1613 H 953 q 38,-594 358,-905 320,-311 892,-311 331,0 642,81 311,81 618,244 V 178 Q 3153,47 2828,-22 2503,-91 2169,-91 1331,-91 842,396 353,884 353,1716 q 0,859 464,1363 464,505 1252,505 706,0 1117,-455 411,-454 411,-1235 z m -575,169 q -6,471 -264,752 -258,282 -683,282 -481,0 -770,-272 -289,-272 -333,-766 z"
             transform="scale(0.015625)" />
          <path
             id="DejaVuSans-6d"
             d="m 3328,2828 q 216,388 516,572 300,184 706,184 547,0 844,-383 297,-382 297,-1088 V 0 h -578 v 2094 q 0,503 -179,746 -178,244 -543,244 -447,0 -707,-297 -259,-296 -259,-809 V 0 h -578 v 2094 q 0,506 -178,748 -178,242 -550,242 -441,0 -701,-298 -259,-298 -259,-808 V 0 H 581 v 3500 h 578 v -544 q 197,322 472,475 275,153 653,153 382,0 649,-194 267,-193 395,-562 z"
             transform="scale(0.015625)" />
          <path
             id="DejaVuSans-62"
             d="m 3116,1747 q 0,634 -261,995 -261,361 -717,361 -457,0 -718,-361 -261,-361 -261,-995 0,-634 261,-995 261,-361 718,-361 456,0 717,361 261,361 261,995 z M 1159,2969 q 182,312 458,463 277,152 661,152 638,0 1036,-506 399,-506 399,-1331 Q 3713,922 3314,415 2916,-91 2278,-91 1894,-91 1617,61 1341,213 1159,525 V 0 H 581 v 4863 h 578 z"
             transform="scale(0.015625)" />
          <path
             id="DejaVuSans-72"
             d="m 2631,2963 q -97,56 -211,82 -114,27 -251,27 -488,0 -749,-317 -261,-317 -261,-911 V 0 H 581 v 3500 h 578 v -544 q 182,319 472,473 291,155 707,155 59,0 131,-8 72,-7 159,-23 z"
             transform="scale(0.015625)" />
          <path
             id="DejaVuSans-61"
             d="m 2194,1759 q -697,0 -966,-159 -269,-159 -269,-544 0,-306 202,-486 202,-179 548,-179 479,0 768,339 289,339 289,901 v 128 z m 1147,238 V 0 H 2766 V 531 Q 2569,213 2275,61 1981,-91 1556,-91 q -537,0 -855,302 -317,302 -317,808 0,590 395,890 396,300 1180,300 h 807 v 57 q 0,397 -261,614 -261,217 -733,217 -300,0 -585,-72 -284,-72 -546,-216 v 532 q 315,122 612,182 297,61 578,61 760,0 1135,-394 375,-393 375,-1193 z"
             transform="scale(0.015625)" />
          <path
             id="DejaVuSans-6e"
             d="M 3513,2113 V 0 h -575 v 2094 q 0,497 -194,743 -194,247 -581,247 -466,0 -735,-297 -269,-296 -269,-809 V 0 H 581 v 3500 h 578 v -544 q 207,316 486,472 280,156 646,156 603,0 912,-373 310,-373 310,-1098 z"
             transform="scale(0.015625)" />
          <path
             id="DejaVuSans-20"
             transform="scale(0.015625)"
             d="" />
          <path
             id="DejaVuSans-41"
             d="M 2188,4044 1331,1722 h 1716 z m -357,622 h 716 L 4325,0 H 3669 L 3244,1197 H 1141 L 716,0 H 50 Z"
             transform="scale(0.015625)" />
          <path
             id="DejaVuSans-28"
             d="m 1984,4856 q -418,-718 -622,-1422 -203,-703 -203,-1425 0,-721 205,-1429 205,-708 620,-1424 h -500 q -468,735 -701,1444 -233,709 -233,1409 0,697 231,1403 232,707 703,1444 z"
             transform="scale(0.015625)" />
          <path
             id="DejaVuSans-32"
             d="M 1228,531 H 3431 V 0 H 469 v 531 q 359,372 979,998 621,627 780,809 303,340 423,576 121,236 121,464 0,372 -261,606 -261,235 -680,235 -297,0 -627,-103 -329,-103 -704,-313 v 638 q 381,153 712,231 332,78 607,78 725,0 1156,-363 431,-362 431,-968 0,-288 -108,-546 -107,-257 -392,-607 -78,-91 -497,-524 Q 1991,1309 1228,531 Z"
             transform="scale(0.015625)" />
          <path
             id="DejaVuSans-29"
             d="m 513,4856 h 500 q 468,-737 701,-1444 233,-706 233,-1403 0,-700 -233,-1409 -233,-709 -701,-1444 H 513 q 415,716 620,1424 205,708 205,1429 0,722 -205,1425 -205,704 -620,1422 z"
             transform="scale(0.015625)" />
        </defs>
        <use
           xlink:href="#DejaVuSans-4d"
           transform="translate(0,0.765625)"
           id="use39" />
        <use
           xlink:href="#DejaVuSans-65"
           transform="translate(86.279297,0.765625)"
           id="use40" />
        <use
           xlink:href="#DejaVuSans-6d"
           transform="translate(147.80273,0.765625)"
           id="use41" />
        <use
           xlink:href="#DejaVuSans-62"
           transform="translate(245.21484,0.765625)"
           id="use42" />
        <use
           xlink:href="#DejaVuSans-72"
           transform="translate(308.69141,0.765625)"
           id="use43" />
        <use
           xlink:href="#DejaVuSans-61"
           transform="translate(349.80469,0.765625)"
           id="use44" />
        <use
           xlink:href="#DejaVuSans-6e"
           transform="translate(411.08398,0.765625)"
           id="use45" />
        <use
           xlink:href="#DejaVuSans-65"
           transform="translate(474.46289,0.765625)"
           id="use46" />
        <use
           xlink:href="#DejaVuSans-20"
           transform="translate(535.98633,0.765625)"
           id="use47" />
        <use
           xlink:href="#DejaVuSans-41"
           transform="translate(567.77344,0.765625)"
           id="use48" />
        <use
           xlink:href="#DejaVuSans-72"
           transform="translate(636.18164,0.765625)"
           id="use49" />
        <use
           xlink:href="#DejaVuSans-65"
           transform="translate(677.29492,0.765625)"
           id="use50" />
        <use
           xlink:href="#DejaVuSans-61"
           transform="translate(738.81836,0.765625)"
           id="use51" />
        <use
           xlink:href="#DejaVuSans-20"
           transform="translate(800.09766,0.765625)"
           id="use52" />
        <use
           xlink:href="#DejaVuSans-28"
           transform="translate(831.88477,0.765625)"
           id="use53" />
        <use
           xlink:href="#DejaVuSans-6d"
           transform="translate(870.89844,0.765625)"
           id="use54" />
        <use
           xlink:href="#DejaVuSans-32"
           transform="matrix(0.7,0,0,0.7,969.26758,39.046875)"
           id="use55" />
        <use
           xlink:href="#DejaVuSans-29"
           transform="translate(1016.5381,0.765625)"
           id="use56" />
      </g>
    </g>
  </g>
  <g
     id="ytick_1"
     transform="translate(21.239147)">
    <g
       id="line2d_10">
      <defs
         id="defs56">
        <path
           id="maad2dd7c8e"
           d="M 0,0 H -3.5"
           style="stroke:#000000;stroke-width:0.8" />
      </defs>
      <g
         id="g57">
        <use
           xlink:href="#maad2dd7c8e"
           x="62.119999"
           y="256.03342"
           style="stroke:#000000;stroke-width:0.8"
           id="use57" />
      </g>
    </g>
    <g
       id="text_11">
      <!-- 0.8 -->
      <g
         transform="matrix(0.14,0,0,-0.14,32.855625,261.35233)"
         id="g60">
        <defs
           id="defs57">
          <path
             id="DejaVuSans-2e"
             d="m 684,794 h 660 V 0 H 684 Z"
             transform="scale(0.015625)" />
        </defs>
        <use
           xlink:href="#DejaVuSans-30"
           id="use58" />
        <use
           xlink:href="#DejaVuSans-2e"
           x="63.623047"
           id="use59" />
        <use
           xlink:href="#DejaVuSans-38"
           x="95.410156"
           id="use60" />
      </g>
    </g>
  </g>
  <g
     id="ytick_2"
     transform="translate(21.239147)">
    <g
       id="line2d_11">
      <g
         id="g61">
        <use
           xlink:href="#maad2dd7c8e"
           x="62.119999"
           y="215.54321"
           style="stroke:#000000;stroke-width:0.8"
           id="use61" />
      </g>
    </g>
    <g
       id="text_12">
      <!-- 1.0 -->
      <g
         transform="matrix(0.14,0,0,-0.14,32.855625,220.86212)"
         id="g64">
        <defs
           id="defs61">
          <path
             id="DejaVuSans-31"
             d="M 794,531 H 1825 V 4091 L 703,3866 v 575 l 1116,225 h 631 V 531 H 3481 V 0 H 794 Z"
             transform="scale(0.015625)" />
        </defs>
        <use
           xlink:href="#DejaVuSans-31"
           id="use62" />
        <use
           xlink:href="#DejaVuSans-2e"
           x="63.623047"
           id="use63" />
        <use
           xlink:href="#DejaVuSans-30"
           x="95.410156"
           id="use64" />
      </g>
    </g>
  </g>
  <g
     id="ytick_3"
     transform="translate(21.239147)">
    <g
       id="line2d_12">
      <g
         id="g65">
        <use
           xlink:href="#maad2dd7c8e"
           x="62.119999"
           y="175.05301"
           style="stroke:#000000;stroke-width:0.8"
           id="use65" />
      </g>
    </g>
    <g
       id="text_13">
      <!-- 1.2 -->
      <g
         transform="matrix(0.14,0,0,-0.14,32.855625,180.37191)"
         id="g68">
        <use
           xlink:href="#DejaVuSans-31"
           id="use66" />
        <use
           xlink:href="#DejaVuSans-2e"
           x="63.623047"
           id="use67" />
        <use
           xlink:href="#DejaVuSans-32"
           x="95.410156"
           id="use68" />
      </g>
    </g>
  </g>
  <g
     id="ytick_4"
     transform="translate(21.239147)">
    <g
       id="line2d_13">
      <g
         id="g69">
        <use
           xlink:href="#maad2dd7c8e"
           x="62.119999"
           y="134.56279"
           style="stroke:#000000;stroke-width:0.8"
           id="use69" />
      </g>
    </g>
    <g
       id="text_14">
      <!-- 1.4 -->
      <g
         transform="matrix(0.14,0,0,-0.14,32.855625,139.8817)"
         id="g72">
        <defs
           id="defs69">
          <path
             id="DejaVuSans-34"
             d="M 2419,4116 825,1625 h 1594 z m -166,550 h 794 V 1625 h 666 V 1100 H 3047 V 0 H 2419 V 1100 H 313 v 609 z"
             transform="scale(0.015625)" />
        </defs>
        <use
           xlink:href="#DejaVuSans-31"
           id="use70" />
        <use
           xlink:href="#DejaVuSans-2e"
           x="63.623047"
           id="use71" />
        <use
           xlink:href="#DejaVuSans-34"
           x="95.410156"
           id="use72" />
      </g>
    </g>
  </g>
  <g
     id="ytick_5"
     transform="translate(21.239147)">
    <g
       id="line2d_14">
      <g
         id="g73">
        <use
           xlink:href="#maad2dd7c8e"
           x="62.119999"
           y="94.072586"
           style="stroke:#000000;stroke-width:0.8"
           id="use73" />
      </g>
    </g>
    <g
       id="text_15">
      <!-- 1.6 -->
      <g
         transform="matrix(0.14,0,0,-0.14,32.855625,99.391491)"
         id="g76">
        <use
           xlink:href="#DejaVuSans-31"
           id="use74" />
        <use
           xlink:href="#DejaVuSans-2e"
           x="63.623047"
           id="use75" />
        <use
           xlink:href="#DejaVuSans-36"
           x="95.410156"
           id="use76" />
      </g>
    </g>
  </g>
  <g
     id="ytick_6"
     transform="translate(21.239147)">
    <g
       id="line2d_15">
      <g
         id="g77">
        <use
           xlink:href="#maad2dd7c8e"
           x="62.119999"
           y="53.582375"
           style="stroke:#000000;stroke-width:0.8"
           id="use77" />
      </g>
    </g>
    <g
       id="text_16">
      <!-- 1.8 -->
      <g
         transform="matrix(0.14,0,0,-0.14,32.855625,58.901281)"
         id="g80">
        <use
           xlink:href="#DejaVuSans-31"
           id="use78" />
        <use
           xlink:href="#DejaVuSans-2e"
           x="63.623047"
           id="use79" />
        <use
           xlink:href="#DejaVuSans-38"
           x="95.410156"
           id="use80" />
      </g>
    </g>
  </g>
  <g
     id="patch_3"
     transform="translate(21.239147)">
    <path
       d="M 62.12,288.592 V 15.12"
       style="fill:none;stroke:#000000;stroke-width:0.8;stroke-linecap:square;stroke-linejoin:miter"
       id="path119" />
  </g>
  <g
     id="patch_4"
     transform="translate(21.239147)">
    <path
       d="M 445.68,288.592 V 15.12"
       style="fill:none;stroke:#000000;stroke-width:0.8;stroke-linecap:square;stroke-linejoin:miter"
       id="path120" />
  </g>
  <g
     id="patch_5"
     transform="translate(21.239147)">
    <path
       d="M 62.12,288.592 H 445.68"
       style="fill:none;stroke:#000000;stroke-width:0.8;stroke-linecap:square;stroke-linejoin:miter"
       id="path121" />
  </g>
  <g
     id="patch_6"
     transform="translate(21.239147)">
    <path
       d="M 62.12,15.12 H 445.68"
       style="fill:none;stroke:#000000;stroke-width:0.8;stroke-linecap:square;stroke-linejoin:miter"
       id="path122" />
  </g>
  <g
     id="legend_1"
     transform="translate(21.239147)">
    <g
       id="patch_7">
      <path
         d="M 226.59969,67.41875 H 435.88 q 2.8,0 2.8,-2.8 V 24.92 q 0,-2.8 -2.8,-2.8 H 226.59969 q -2.8,0 -2.8,2.8 v 39.69875 q 0,2.8 2.8,2.8 z"
         style="opacity:0.8;fill:#ffffff;stroke:#cccccc;stroke-linejoin:miter"
         id="path123" />
    </g>
    <g
       id="PathCollection_3">
      <g
         id="g123">
        <use
           xlink:href="#mfcf5058810"
           x="243.39969"
           y="34.682812"
           style="fill:#1f77b4;stroke:#1f77b4"
           id="use123" />
      </g>
    </g>
    <g
       id="text_18">
      <!-- Fractional recovery: 0.4 -->
      <g
         transform="matrix(0.14,0,0,-0.14,268.59969,38.357812)"
         id="g147">
        <defs
           id="defs123">
          <path
             id="DejaVuSans-46"
             d="M 628,4666 H 3309 V 4134 H 1259 V 2759 H 3109 V 2228 H 1259 V 0 H 628 Z"
             transform="scale(0.015625)" />
          <path
             id="DejaVuSans-63"
             d="m 3122,3366 v -538 q -244,135 -489,202 -245,67 -495,67 -560,0 -870,-355 -309,-354 -309,-995 0,-641 309,-996 310,-354 870,-354 250,0 495,67 245,67 489,202 V 134 Q 2881,22 2623,-34 2366,-91 2075,-91 1284,-91 818,406 353,903 353,1747 q 0,856 470,1346 471,491 1290,491 265,0 518,-55 253,-54 491,-163 z"
             transform="scale(0.015625)" />
          <path
             id="DejaVuSans-76"
             d="M 191,3500 H 800 L 1894,563 2988,3500 h 609 L 2284,0 h -781 z"
             transform="scale(0.015625)" />
          <path
             id="DejaVuSans-79"
             d="m 2059,-325 q -243,-625 -475,-815 -231,-191 -618,-191 H 506 v 481 h 338 q 237,0 368,113 132,112 291,531 L 1606,56 191,3500 H 800 L 1894,763 2988,3500 h 609 z"
             transform="scale(0.015625)" />
          <path
             id="DejaVuSans-3a"
             d="m 750,794 h 659 V 0 H 750 Z m 0,2515 h 659 V 2516 H 750 Z"
             transform="scale(0.015625)" />
        </defs>
        <use
           xlink:href="#DejaVuSans-46"
           id="use124" />
        <use
           xlink:href="#DejaVuSans-72"
           x="50.269531"
           id="use125" />
        <use
           xlink:href="#DejaVuSans-61"
           x="91.382812"
           id="use126" />
        <use
           xlink:href="#DejaVuSans-63"
           x="152.66211"
           id="use127" />
        <path
           id="use128"
           d="M 225.95508,70.21875 V 54.6875 h 18.5 v -6.984375 h -18.5 v -29.6875 q 0,-6.6875 1.82812,-8.59375 1.82813,-1.90625 7.45313,-1.90625 h 9.21875 V 0 h -9.21875 q -10.40625,0 -14.35938,3.875 -3.95312,3.890625 -3.95312,14.140625 v 29.6875 h -6.59375 V 54.6875 h 6.59375 v 15.53125 z"
           style="stroke-width:0.015625" />
        <path
           id="use129"
           d="m 256.27344,54.6875 h 8.98437 V 0 h -8.98437 z m 0,21.296875 h 8.98437 V 64.59375 h -8.98437 z"
           style="stroke-width:0.015625" />
        <path
           id="use130"
           d="m 305.24414,48.390625 q -7.21875,0 -11.42187,-5.640625 -4.20313,-5.640625 -4.20313,-15.453125 0,-9.8125 4.17188,-15.453125 4.1875,-5.640625 11.45312,-5.640625 7.1875,0 11.375,5.65625 4.20313,5.671875 4.20313,15.4375 0,9.71875 -4.20313,15.40625 -4.1875,5.6875 -11.375,5.6875 z m 0,7.609375 q 11.71875,0 18.40625,-7.625 6.70313,-7.609375 6.70313,-21.078125 0,-13.421875 -6.70313,-21.078125 -6.6875,-7.640625 -18.40625,-7.640625 -11.76562,0 -18.4375,7.640625 -6.65625,7.65625 -6.65625,21.078125 0,13.46875 6.65625,21.078125 6.67188,7.625 18.4375,7.625 z"
           style="stroke-width:0.015625" />
        <use
           xlink:href="#DejaVuSans-6e"
           x="335.81641"
           id="use131" />
        <use
           xlink:href="#DejaVuSans-61"
           x="399.19531"
           id="use132" />
        <path
           id="use133"
           d="m 469.89648,75.984375 h 8.98438 V 0 h -8.98438 z"
           style="stroke-width:0.015625" />
        <use
           xlink:href="#DejaVuSans-20"
           x="488.25781"
           id="use134" />
        <use
           xlink:href="#DejaVuSans-72"
           x="520.04492"
           id="use135" />
        <use
           xlink:href="#DejaVuSans-65"
           x="558.9082"
           id="use136" />
        <use
           xlink:href="#DejaVuSans-63"
           x="620.43164"
           id="use137" />
        <path
           id="use138"
           d="m 706.02148,48.390625 q -7.21875,0 -11.42187,-5.640625 -4.20313,-5.640625 -4.20313,-15.453125 0,-9.8125 4.17188,-15.453125 4.1875,-5.640625 11.45312,-5.640625 7.1875,0 11.375,5.65625 4.20313,5.671875 4.20313,15.4375 0,9.71875 -4.20313,15.40625 -4.1875,5.6875 -11.375,5.6875 z m 0,7.609375 q 11.71875,0 18.40625,-7.625 6.70313,-7.609375 6.70313,-21.078125 0,-13.421875 -6.70313,-21.078125 -6.6875,-7.640625 -18.40625,-7.640625 -11.76562,0 -18.4375,7.640625 -6.65625,7.65625 -6.65625,21.078125 0,13.46875 6.65625,21.078125 6.67188,7.625 18.4375,7.625 z"
           style="stroke-width:0.015625" />
        <use
           xlink:href="#DejaVuSans-76"
           x="736.59375"
           id="use139" />
        <use
           xlink:href="#DejaVuSans-65"
           x="795.77344"
           id="use140" />
        <use
           xlink:href="#DejaVuSans-72"
           x="857.29688"
           id="use141" />
        <use
           xlink:href="#DejaVuSans-79"
           x="898.41016"
           id="use142" />
        <use
           xlink:href="#DejaVuSans-3a"
           x="950.33984"
           id="use143" />
        <use
           xlink:href="#DejaVuSans-20"
           x="984.03125"
           id="use144" />
        <use
           xlink:href="#DejaVuSans-30"
           x="1015.8184"
           id="use145" />
        <use
           xlink:href="#DejaVuSans-2e"
           x="1079.4414"
           id="use146" />
        <use
           xlink:href="#DejaVuSans-34"
           x="1111.2285"
           id="use147" />
      </g>
    </g>
    <g
       id="PathCollection_4">
      <g
         id="g148">
        <use
           xlink:href="#m8f68560e0a"
           x="243.39969"
           y="55.232185"
           style="fill:#ff7f0e;stroke:#ff7f0e"
           id="use148" />
      </g>
    </g>
    <g
       id="text_19">
      <!-- Fractional recovery: 0.6 -->
      <g
         transform="matrix(0.14,0,0,-0.14,268.59969,58.907187)"
         id="g172">
        <use
           xlink:href="#DejaVuSans-46"
           id="use149" />
        <use
           xlink:href="#DejaVuSans-72"
           x="50.269531"
           id="use150" />
        <use
           xlink:href="#DejaVuSans-61"
           x="91.382812"
           id="use151" />
        <use
           xlink:href="#DejaVuSans-63"
           x="152.66211"
           id="use152" />
        <path
           id="use153"
           d="M 225.95508,70.21875 V 54.6875 h 18.5 v -6.984375 h -18.5 v -29.6875 q 0,-6.6875 1.82812,-8.59375 1.82813,-1.90625 7.45313,-1.90625 h 9.21875 V 0 h -9.21875 q -10.40625,0 -14.35938,3.875 -3.95312,3.890625 -3.95312,14.140625 v 29.6875 h -6.59375 V 54.6875 h 6.59375 v 15.53125 z"
           style="stroke-width:0.015625" />
        <path
           id="use154"
           d="m 256.27344,54.6875 h 8.98437 V 0 h -8.98437 z m 0,21.296875 h 8.98437 V 64.59375 h -8.98437 z"
           style="stroke-width:0.015625" />
        <path
           id="use155"
           d="m 305.24414,48.390625 q -7.21875,0 -11.42187,-5.640625 -4.20313,-5.640625 -4.20313,-15.453125 0,-9.8125 4.17188,-15.453125 4.1875,-5.640625 11.45312,-5.640625 7.1875,0 11.375,5.65625 4.20313,5.671875 4.20313,15.4375 0,9.71875 -4.20313,15.40625 -4.1875,5.6875 -11.375,5.6875 z m 0,7.609375 q 11.71875,0 18.40625,-7.625 6.70313,-7.609375 6.70313,-21.078125 0,-13.421875 -6.70313,-21.078125 -6.6875,-7.640625 -18.40625,-7.640625 -11.76562,0 -18.4375,7.640625 -6.65625,7.65625 -6.65625,21.078125 0,13.46875 6.65625,21.078125 6.67188,7.625 18.4375,7.625 z"
           style="stroke-width:0.015625" />
        <use
           xlink:href="#DejaVuSans-6e"
           x="335.81641"
           id="use156" />
        <use
           xlink:href="#DejaVuSans-61"
           x="399.19531"
           id="use157" />
        <path
           id="use158"
           d="m 469.89648,75.984375 h 8.98438 V 0 h -8.98438 z"
           style="stroke-width:0.015625" />
        <use
           xlink:href="#DejaVuSans-20"
           x="488.25781"
           id="use159" />
        <use
           xlink:href="#DejaVuSans-72"
           x="520.04492"
           id="use160" />
        <use
           xlink:href="#DejaVuSans-65"
           x="558.9082"
           id="use161" />
        <use
           xlink:href="#DejaVuSans-63"
           x="620.43164"
           id="use162" />
        <path
           id="use163"
           d="m 706.02148,48.390625 q -7.21875,0 -11.42187,-5.640625 -4.20313,-5.640625 -4.20313,-15.453125 0,-9.8125 4.17188,-15.453125 4.1875,-5.640625 11.45312,-5.640625 7.1875,0 11.375,5.65625 4.20313,5.671875 4.20313,15.4375 0,9.71875 -4.20313,15.40625 -4.1875,5.6875 -11.375,5.6875 z m 0,7.609375 q 11.71875,0 18.40625,-7.625 6.70313,-7.609375 6.70313,-21.078125 0,-13.421875 -6.70313,-21.078125 -6.6875,-7.640625 -18.40625,-7.640625 -11.76562,0 -18.4375,7.640625 -6.65625,7.65625 -6.65625,21.078125 0,13.46875 6.65625,21.078125 6.67188,7.625 18.4375,7.625 z"
           style="stroke-width:0.015625" />
        <use
           xlink:href="#DejaVuSans-76"
           x="736.59375"
           id="use164" />
        <use
           xlink:href="#DejaVuSans-65"
           x="795.77344"
           id="use165" />
        <use
           xlink:href="#DejaVuSans-72"
           x="857.29688"
           id="use166" />
        <use
           xlink:href="#DejaVuSans-79"
           x="898.41016"
           id="use167" />
        <use
           xlink:href="#DejaVuSans-3a"
           x="950.33984"
           id="use168" />
        <use
           xlink:href="#DejaVuSans-20"
           x="984.03125"
           id="use169" />
        <use
           xlink:href="#DejaVuSans-30"
           x="1015.8184"
           id="use170" />
        <use
           xlink:href="#DejaVuSans-2e"
           x="1079.4414"
           id="use171" />
        <use
           xlink:href="#DejaVuSans-36"
           x="1111.2285"
           id="use172" />
      </g>
    </g>
  </g>
  <defs
     id="defs172">
    <clipPath
       id="pd559e948ac">
      <rect
         x="62.119999"
         y="15.12"
         width="383.56"
         height="273.47198"
         id="rect172" />
    </clipPath>
  </defs>
  <text
     xml:space="preserve"
     style="font-size:15.755px;font-family:'Telugu Sangam MN';-inkscape-font-specification:'Telugu Sangam MN';text-align:center;text-anchor:middle;fill:#000000;stroke-width:1.16981"
     x="-172.65549"
     y="11.857711"
     id="text172"
     transform="rotate(-90)"><tspan
       sodipodi:role="line"
       id="tspan172"
       style="stroke-width:1.16981"
       x="-172.65549"
       y="11.857711">Total Operating Costs</tspan></text>
  <text
     xml:space="preserve"
     style="font-size:15.755px;font-family:'Telugu Sangam MN';-inkscape-font-specification:'Telugu Sangam MN';text-align:center;text-anchor:middle;fill:#000000;stroke-width:1.16981;stroke-linecap:butt;stroke-linejoin:round"
     x="-172.65549"
     y="34.936188"
     id="text172-7"
     transform="rotate(-90)"><tspan
       sodipodi:role="line"
       id="tspan172-0"
       style="stroke-width:1.16981"
       x="-172.65549"
       y="34.936188">Total Capital Costs</tspan></text>
  <path
     style="fill:#000000;stroke:#000000;stroke-width:1.16981;stroke-opacity:1"
     d="M 18.892979,259.56084 V 85.49305"
     id="path172" />
  <path
     style="fill:none;stroke:#fc0000;stroke-width:1.485;stroke-opacity:1;stroke-dasharray:5.94000006,1.48500002;stroke-dashoffset:0"
     d="M 82.930035,215.6181 H 466.54835"
     id="path173" />
</svg>
